<?xml version="1.0" standalone="no"?>
<!DOCTYPE svg PUBLIC "-//W3C//DTD SVG 20010904//EN"
 "http://www.w3.org/TR/2001/REC-SVG-20010904/DTD/svg10.dtd">
<svg version="1.0" xmlns="http://www.w3.org/2000/svg"
 width="700.000000pt" height="700.000000pt" viewBox="0 0 700.000000 700.000000"
 preserveAspectRatio="xMidYMid meet">
<metadata>
Created by potrace 1.14, written by Peter Selinger 2001-2017
</metadata>
<g transform="translate(0.000000,700.000000) scale(0.100000,-0.100000)"
fill="#000000" stroke="none">
<path d="M3907 6514 c-1 -1 -51 -4 -112 -7 -94 -5 -267 -26 -341 -41 -12 -2
-39 -7 -60 -10 -62 -10 -291 -72 -389 -106 -353 -122 -691 -316 -980 -563
-110 -94 -296 -287 -390 -405 -301 -377 -507 -813 -599 -1269 -26 -128 -31
-159 -40 -243 -4 -30 -9 -73 -12 -95 -11 -81 -10 -453 2 -555 23 -201 27 -227
69 -422 34 -156 125 -411 216 -604 104 -221 305 -522 458 -687 l44 -47 -64 -1
c-35 0 -434 0 -887 -1 l-822 0 2 -486 3 -486 2030 0 c1815 0 2187 3 2275 18
14 3 52 7 85 11 67 7 220 36 340 67 356 89 735 268 1035 491 52 39 100 75 106
81 7 6 31 27 55 46 74 59 293 280 376 380 263 317 463 697 578 1098 38 135 72
291 81 374 3 29 7 60 9 68 19 70 27 495 12 660 -47 530 -251 1064 -572 1501
-32 44 -70 93 -82 107 -13 15 -38 46 -56 69 -41 54 -285 295 -357 353 -30 25
-57 47 -60 51 -10 11 -215 155 -280 196 -255 161 -611 312 -870 368 -8 2 -44
10 -80 19 -126 29 -271 50 -430 62 -82 5 -289 11 -293 8z m307 -599 c244 -83
422 -276 486 -526 25 -96 24 -248 -1 -348 -21 -84 -84 -220 -124 -266 -183
-213 -372 -300 -627 -290 -59 2 -115 8 -125 13 -10 6 -21 10 -26 11 -27 3 -70
18 -122 42 -457 214 -567 826 -212 1180 61 60 160 132 198 144 13 4 29 11 34
15 14 10 102 38 156 50 24 5 98 7 164 5 98 -3 135 -8 199 -30z m-1760 -1705
c128 -33 238 -96 334 -191 260 -258 289 -664 69 -959 -40 -54 -49 -63 -118
-125 -106 -96 -274 -160 -436 -169 -405 -20 -753 301 -767 707 -11 325 193
620 501 723 42 14 96 28 122 31 25 3 47 6 49 8 10 9 182 -8 246 -25z m3421 4
c242 -59 439 -238 520 -471 48 -139 53 -300 14 -448 -60 -222 -253 -422 -479
-493 -478 -153 -960 198 -961 698 0 120 26 226 83 340 54 107 178 238 281 295
174 96 360 123 542 79z m-1685 -1724 c211 -66 378 -209 460 -395 13 -27 27
-58 32 -68 18 -36 36 -160 36 -247 0 -112 -20 -203 -69 -308 -60 -130 -147
-230 -268 -306 -138 -88 -248 -117 -416 -112 -130 4 -208 22 -305 71 -56 28
-149 93 -185 130 -95 95 -180 245 -205 360 -14 62 -19 247 -8 300 49 247 221
457 448 549 107 44 165 53 300 51 78 -1 124 -8 180 -25z"/>
</g>
</svg>
